<?xml version="1.0" encoding="UTF-8" standalone="no"?><!DOCTYPE svg PUBLIC "-//W3C//DTD SVG 1.1//EN" "http://www.w3.org/Graphics/SVG/1.1/DTD/svg11.dtd"><svg width="100%" height="100%" viewBox="0 0 22 21" version="1.1" xmlns="http://www.w3.org/2000/svg" xmlns:xlink="http://www.w3.org/1999/xlink" xml:space="preserve" xmlns:serif="http://www.serif.com/" style="fill-rule:evenodd;clip-rule:evenodd;stroke-linejoin:round;stroke-miterlimit:1.41421;"><path d="M16.497,0c2.853,0 5.169,2.317 5.169,5.17l0,10.339c0,2.854 -2.316,5.17 -5.169,5.17l-11.327,0c-2.853,0 -5.17,-2.316 -5.17,-5.17l0,-10.339c0,-2.853 2.317,-5.17 5.17,-5.17l11.327,0Zm-8.467,14.038l0,-0.116c-0.173,-0.36 -0.264,-0.859 -0.273,-1.497l0,-3.48c0,-0.784 -0.222,-1.386 -0.667,-1.808c-0.444,-0.422 -1.072,-0.632 -1.883,-0.632c-0.784,0 -1.432,0.222 -1.945,0.666c-0.512,0.445 -0.769,1.008 -0.769,1.692l1.935,0c0,-0.565 0.241,-0.848 0.725,-0.848c0.218,0 0.385,0.069 0.499,0.205c0.113,0.137 0.17,0.372 0.17,0.705l0,0.594l-0.587,0c-0.93,0.009 -1.642,0.226 -2.137,0.65c-0.494,0.424 -0.741,1.023 -0.741,1.798c0,0.651 0.204,1.182 0.611,1.592c0.408,0.411 0.922,0.616 1.542,0.616c0.592,0 1.062,-0.237 1.408,-0.711c0.055,0.269 0.11,0.46 0.164,0.574l1.948,0Zm8.354,-1.607l2.885,-4.621l0,-1.169l-5.114,0l0,1.614l2.789,0l-2.857,4.573l0,1.21l5.223,0l0,-1.607l-2.926,0Zm-10.562,-1.75l0,1.539c-0.072,0.118 -0.184,0.221 -0.335,0.307c-0.15,0.087 -0.332,0.13 -0.546,0.13c-0.429,0 -0.643,-0.273 -0.643,-0.82c0,-0.351 0.095,-0.631 0.284,-0.841c0.189,-0.21 0.447,-0.315 0.776,-0.315l0.464,0Zm6.816,-0.102l0,-1.613l-3.343,0l0,1.613l3.343,0Z" style="fill:#79c2ad;"/></svg>