<?xml version="1.0" encoding="UTF-8" standalone="no"?><!DOCTYPE svg PUBLIC "-//W3C//DTD SVG 1.1//EN" "http://www.w3.org/Graphics/SVG/1.1/DTD/svg11.dtd"><svg width="100%" height="100%" viewBox="0 0 22 21" version="1.1" xmlns="http://www.w3.org/2000/svg" xmlns:xlink="http://www.w3.org/1999/xlink" xml:space="preserve" xmlns:serif="http://www.serif.com/" style="fill-rule:evenodd;clip-rule:evenodd;stroke-linejoin:round;stroke-miterlimit:1.41421;"><g><path d="M21.666,5.17c0,-2.854 -2.316,-5.17 -5.17,-5.17l-11.326,0c-2.853,0 -5.17,2.316 -5.17,5.17l0,10.339c0,2.854 2.317,5.17 5.17,5.17l11.326,0c2.854,0 5.17,-2.316 5.17,-5.17l0,-10.339Z" style="fill:#1fb78b;"/><g><rect x="2.589" y="8.286" width="16.488" height="9.972" style="fill:#fff;"/><g><g><rect x="12.929" y="14.929" width="1.833" height="1.608" style="fill:#1fb78b;"/><rect x="3.893" y="14.929" width="1.833" height="1.608" style="fill:#1fb78b;"/><rect x="6.905" y="14.929" width="1.833" height="1.608" style="fill:#1fb78b;"/><rect x="9.917" y="14.929" width="1.833" height="1.608" style="fill:#1fb78b;"/></g><g><rect x="9.917" y="10.008" width="1.833" height="1.608" style="fill:#1fb78b;"/><rect x="12.929" y="10.008" width="1.833" height="1.608" style="fill:#1fb78b;"/><rect x="15.94" y="10.008" width="1.833" height="1.608" style="fill:#1fb78b;"/></g><g><rect x="3.893" y="12.469" width="1.833" height="1.608" style="fill:#1fb78b;"/><rect x="6.905" y="12.469" width="1.833" height="1.608" style="fill:#1fb78b;"/><rect x="9.917" y="12.469" width="1.833" height="1.608" style="fill:#1fb78b;"/><rect x="12.929" y="12.469" width="1.833" height="1.608" style="fill:#1fb78b;"/><rect x="15.94" y="12.469" width="1.833" height="1.608" style="fill:#1fb78b;"/></g></g><path d="M2.589,4.505l2.019,0l0,-2.084l1.976,0l0,2.084l8.498,0l0,-2.084l1.976,0l0,2.084l2.019,0l0,2.651l-16.488,0l0,-2.651Z" style="fill:#fff;"/></g></g></svg>