<?xml version="1.0" encoding="UTF-8" standalone="no"?>
<!DOCTYPE svg PUBLIC "-//W3C//DTD SVG 1.1//EN" "http://www.w3.org/Graphics/SVG/1.1/DTD/svg11.dtd">
<svg width="100%" height="100%" viewBox="0 0 22 21" version="1.1" xmlns="http://www.w3.org/2000/svg" xmlns:xlink="http://www.w3.org/1999/xlink" xml:space="preserve" xmlns:serif="http://www.serif.com/" style="fill-rule:evenodd;clip-rule:evenodd;stroke-linejoin:round;stroke-miterlimit:1.41421;">
    <g transform="matrix(1,0,0,1,-61.7606,-6.20593)">
        <path d="M78.257,6.206C81.11,6.206 83.427,8.522 83.427,11.376L83.427,21.715C83.427,24.569 81.11,26.885 78.257,26.885L66.93,26.885C64.077,26.885 61.761,24.569 61.761,21.715L61.761,11.376C61.761,8.522 64.077,6.206 66.93,6.206L78.257,6.206ZM72.165,8.869C72.239,8.698 72.407,8.587 72.594,8.587C72.78,8.587 72.949,8.698 73.023,8.869L75.163,13.847L80.553,14.346C80.738,14.363 80.896,14.489 80.954,14.667C81.012,14.844 80.958,15.039 80.818,15.162L76.75,18.738L77.942,24.023C77.983,24.206 77.912,24.395 77.761,24.504C77.61,24.614 77.408,24.624 77.248,24.528L72.594,21.761L67.94,24.528C67.78,24.624 67.578,24.614 67.427,24.504C67.276,24.395 67.205,24.206 67.246,24.023L68.437,18.738L64.37,15.162C64.23,15.039 64.176,14.844 64.234,14.667C64.291,14.489 64.449,14.363 64.635,14.346L70.025,13.847L72.165,8.869Z" style="fill:rgb(31,183,139);"/>
    </g>
</svg>
