<?xml version="1.0" encoding="UTF-8" standalone="no"?>
<!DOCTYPE svg PUBLIC "-//W3C//DTD SVG 1.1//EN" "http://www.w3.org/Graphics/SVG/1.1/DTD/svg11.dtd">
<svg width="100%" height="100%" viewBox="0 0 22 21" version="1.1" xmlns="http://www.w3.org/2000/svg" xmlns:xlink="http://www.w3.org/1999/xlink" xml:space="preserve" xmlns:serif="http://www.serif.com/" style="fill-rule:evenodd;clip-rule:evenodd;stroke-linejoin:round;stroke-miterlimit:1.41421;">
    <g transform="matrix(1,0,0,1,-18.4168,-6.20593)">
        <g transform="matrix(1,0,0,1,2.22706,0)">
            <path d="M32.686,6.206C35.54,6.206 37.856,8.522 37.856,11.376L37.856,21.715C37.856,24.569 35.54,26.885 32.686,26.885L21.36,26.885C18.506,26.885 16.19,24.569 16.19,21.715L16.19,11.376C16.19,8.522 18.506,6.206 21.36,6.206L32.686,6.206ZM26.594,8.869C26.668,8.698 26.836,8.587 27.023,8.587C27.209,8.587 27.378,8.698 27.452,8.869L29.592,13.847L34.982,14.346C35.168,14.363 35.325,14.489 35.383,14.667C35.441,14.844 35.387,15.039 35.247,15.162L31.179,18.738L32.371,24.023C32.412,24.206 32.341,24.395 32.19,24.504C32.039,24.614 31.837,24.624 31.677,24.528L27.023,21.761L22.369,24.528C22.209,24.624 22.007,24.614 21.856,24.504C21.705,24.395 21.634,24.206 21.675,24.023L22.866,18.738L18.799,15.162C18.659,15.039 18.605,14.844 18.663,14.667C18.72,14.489 18.878,14.363 19.064,14.346L24.454,13.847L26.594,8.869Z" style="fill:rgb(121,194,173);"/>
        </g>
    </g>
</svg>
