<?xml version="1.0" encoding="UTF-8" standalone="no"?>
<!DOCTYPE svg PUBLIC "-//W3C//DTD SVG 1.1//EN" "http://www.w3.org/Graphics/SVG/1.1/DTD/svg11.dtd">
<svg width="100%" height="100%" viewBox="0 0 14 14" version="1.1" xmlns="http://www.w3.org/2000/svg" xmlns:xlink="http://www.w3.org/1999/xlink" xml:space="preserve" xmlns:serif="http://www.serif.com/" style="fill-rule:evenodd;clip-rule:evenodd;stroke-linejoin:round;stroke-miterlimit:1.41421;">
    <g transform="matrix(1,0,0,1,-425.337,-81.1865)">
        <g transform="matrix(0.404409,0.403688,-0.403688,0.404409,432.253,75.9914)">
            <path d="M11.985,11.985L11.985,1.508C11.985,0.676 12.66,0 13.492,0L16.508,0C17.34,0 18.015,0.676 18.015,1.508L18.015,11.985L28.492,11.985C29.324,11.985 30,12.66 30,13.492L30,16.508C30,17.34 29.324,18.015 28.492,18.015L18.015,18.015L18.015,28.492C18.015,29.324 17.34,30 16.508,30L13.492,30C12.66,30 11.985,29.324 11.985,28.492L11.985,18.015L1.508,18.015C0.676,18.015 0,17.34 0,16.508L0,13.492C0,12.66 0.676,11.985 1.508,11.985L11.985,11.985Z" style="fill:rgb(70,96,89);"/>
        </g>
    </g>
</svg>
